#tb 0: 1001/30000
#media_type 0: video
#codec_id 0: rawvideo
#dimensions 0: 128x128
#sar 0: 4/3
0,          1,          1,        1,    24576, 0xc0c88336
0,          2,          2,        1,    24576, 0xd12dc66f
0,          3,          3,        1,    24576, 0x557de3de
0,          4,          4,        1,    24576, 0xc00c1841
0,          5,          5,        1,    24576, 0xf221563a
